<?xml version="1.0" standalone="no"?>
<!DOCTYPE svg PUBLIC "-//W3C//DTD SVG 20010904//EN"
 "http://www.w3.org/TR/2001/REC-SVG-20010904/DTD/svg10.dtd">
<svg version="1.0" xmlns="http://www.w3.org/2000/svg"
 width="1100.000000pt" height="1100.000000pt" viewBox="0 0 1100.000000 1100.000000"
 preserveAspectRatio="xMidYMid meet">

<g transform="translate(0.000000,1100.000000) scale(0.100000,-0.100000)"
fill="#000000" stroke="none">
<path d="M5338 10552 c-14 -9 -100 -94 -190 -188 -191 -200 -752 -784 -1257
-1308 -753 -781 -944 -982 -962 -1011 -10 -16 -19 -41 -19 -53 0 -28 26 -74
49 -89 9 -5 499 -178 1088 -384 590 -206 1073 -376 1073 -379 0 -4 -1262 -404
-4395 -1392 -145 -46 -185 -73 -185 -128 0 -45 24 -85 62 -103 18 -8 1063
-374 2322 -812 1260 -437 2292 -798 2294 -800 6 -6 99 23 -1108 -351 -1191
-368 -1140 -349 -1140 -428 1 -61 37 -96 99 -96 17 0 551 162 1188 359 637
198 1159 358 1160 357 2 -1 16 -705 31 -1564 27 -1537 28 -1562 48 -1589 12
-16 33 -34 49 -42 65 -32 19 -75 1296 1219 926 938 1197 1219 1209 1250 13 35
12 43 -3 74 -9 19 -27 42 -39 50 -13 8 -491 178 -1063 376 -572 199 -1043 365
-1048 369 -4 4 134 51 305 104 3824 1183 4243 1315 4270 1346 38 42 38 90 1
131 -25 26 -299 124 -2355 842 -1281 447 -2328 815 -2328 818 0 4 476 156
1058 340 581 183 1073 341 1093 351 83 41 75 149 -15 179 -38 12 101 54 -1399
-420 -527 -166 -961 -299 -965 -296 -5 6 -59 2735 -61 3110 l-1 108 -34 34
c-39 39 -84 45 -128 16z m-7 -1800 c15 -807 25 -1469 23 -1471 -3 -3 -2126
734 -2151 748 -8 4 52 74 165 192 218 229 851 888 1022 1064 123 126 452 468
756 786 82 85 151 154 154 151 3 -2 17 -664 31 -1470z m33 -1909 c11 -291 50
-2772 43 -2779 -3 -4 -1008 342 -2232 767 -1764 613 -2221 776 -2203 783 27
10 4370 1384 4379 1385 4 1 9 -70 13 -156z m1486 -302 c690 -241 1697 -593
2238 -782 540 -188 982 -345 982 -349 0 -4 -665 -213 -1477 -465 -813 -252
-1813 -563 -2223 -690 -410 -127 -748 -229 -751 -226 -3 3 -16 587 -28 1296
-12 710 -24 1375 -28 1479 -6 183 -5 189 13 182 10 -4 584 -204 1274 -445z
m-138 -3153 c587 -204 1067 -375 1066 -378 -5 -12 -2100 -2131 -2104 -2127 -3
3 -54 2681 -54 2828 0 30 4 49 11 49 7 0 493 -167 1081 -372z"/>
</g>
</svg>
